<mxfile host="Electron" agent="Mozilla/5.0 (Windows NT 10.0; Win64; x64) AppleWebKit/537.36 (KHTML, like Gecko) draw.io/24.7.17 Chrome/128.0.6613.36 Electron/32.0.1 Safari/537.36" version="24.7.17">
  <diagram name="Страница — 1" id="NSx2ewMza1Y56-QGjFJZ">
    <mxGraphModel dx="1154" dy="582" grid="1" gridSize="10" guides="1" tooltips="1" connect="1" arrows="1" fold="1" page="1" pageScale="1" pageWidth="1169" pageHeight="1654" math="0" shadow="0">
      <root>
        <mxCell id="0" />
        <mxCell id="1" parent="0" />
        <mxCell id="yGaHs416NKimu-mibkIS-1" value="#include&amp;lt;iostream&amp;gt;&lt;div&gt;#include&amp;lt;clocale&amp;gt;&lt;/div&gt;&lt;div&gt;using namespace std;&lt;/div&gt;&lt;div&gt;&lt;div&gt;float x, xPrev;&lt;/div&gt;&lt;div&gt;double eps = 0.000001;&lt;/div&gt;&lt;div&gt;double lambda = 0.05;&lt;/div&gt;&lt;/div&gt;" style="strokeWidth=2;html=1;shape=mxgraph.flowchart.annotation_1;align=left;pointerEvents=1;" parent="1" vertex="1">
          <mxGeometry x="670" y="40" width="142" height="90" as="geometry" />
        </mxCell>
        <mxCell id="yGaHs416NKimu-mibkIS-3" value="Начало" style="ellipse;whiteSpace=wrap;html=1;" parent="1" vertex="1">
          <mxGeometry x="510" y="20" width="140" height="40" as="geometry" />
        </mxCell>
        <mxCell id="yGaHs416NKimu-mibkIS-4" style="edgeStyle=orthogonalEdgeStyle;rounded=0;orthogonalLoop=1;jettySize=auto;html=1;exitX=0.5;exitY=1;exitDx=0;exitDy=0;exitPerimeter=0;" parent="1" source="yGaHs416NKimu-mibkIS-1" target="yGaHs416NKimu-mibkIS-1" edge="1">
          <mxGeometry relative="1" as="geometry" />
        </mxCell>
        <mxCell id="yGaHs416NKimu-mibkIS-13" style="edgeStyle=orthogonalEdgeStyle;rounded=0;orthogonalLoop=1;jettySize=auto;html=1;exitX=0.5;exitY=1;exitDx=0;exitDy=0;entryX=0.5;entryY=0;entryDx=0;entryDy=0;" parent="1" source="yGaHs416NKimu-mibkIS-5" target="yGaHs416NKimu-mibkIS-7" edge="1">
          <mxGeometry relative="1" as="geometry" />
        </mxCell>
        <mxCell id="yGaHs416NKimu-mibkIS-5" value="int main()" style="shape=process;whiteSpace=wrap;html=1;backgroundOutline=1;" parent="1" vertex="1">
          <mxGeometry x="522" y="210" width="115" height="20" as="geometry" />
        </mxCell>
        <mxCell id="yGaHs416NKimu-mibkIS-6" value="" style="endArrow=none;dashed=1;html=1;dashPattern=1 3;strokeWidth=2;rounded=0;entryX=0;entryY=0.5;entryDx=0;entryDy=0;entryPerimeter=0;" parent="1" target="yGaHs416NKimu-mibkIS-1" edge="1">
          <mxGeometry width="50" height="50" relative="1" as="geometry">
            <mxPoint x="580" y="85" as="sourcePoint" />
            <mxPoint x="595" y="120" as="targetPoint" />
          </mxGeometry>
        </mxCell>
        <mxCell id="yGaHs416NKimu-mibkIS-14" style="edgeStyle=orthogonalEdgeStyle;rounded=0;orthogonalLoop=1;jettySize=auto;html=1;exitX=0.5;exitY=1;exitDx=0;exitDy=0;entryX=0.5;entryY=0;entryDx=0;entryDy=0;" parent="1" source="yGaHs416NKimu-mibkIS-7" target="yGaHs416NKimu-mibkIS-8" edge="1">
          <mxGeometry relative="1" as="geometry" />
        </mxCell>
        <mxCell id="yGaHs416NKimu-mibkIS-7" value="x = 2;" style="whiteSpace=wrap;html=1;" parent="1" vertex="1">
          <mxGeometry x="550" y="260" width="60" height="20" as="geometry" />
        </mxCell>
        <mxCell id="yGaHs416NKimu-mibkIS-15" style="edgeStyle=orthogonalEdgeStyle;rounded=0;orthogonalLoop=1;jettySize=auto;html=1;exitX=0.5;exitY=1;exitDx=0;exitDy=0;entryX=0.5;entryY=0;entryDx=0;entryDy=0;" parent="1" source="yGaHs416NKimu-mibkIS-8" target="yGaHs416NKimu-mibkIS-9" edge="1">
          <mxGeometry relative="1" as="geometry" />
        </mxCell>
        <mxCell id="yGaHs416NKimu-mibkIS-8" value="a = 0;" style="whiteSpace=wrap;html=1;" parent="1" vertex="1">
          <mxGeometry x="549.5" y="300" width="60" height="20" as="geometry" />
        </mxCell>
        <mxCell id="yGaHs416NKimu-mibkIS-16" style="edgeStyle=orthogonalEdgeStyle;rounded=0;orthogonalLoop=1;jettySize=auto;html=1;exitX=0.5;exitY=1;exitDx=0;exitDy=0;entryX=0.5;entryY=0;entryDx=0;entryDy=0;" parent="1" source="yGaHs416NKimu-mibkIS-9" target="yGaHs416NKimu-mibkIS-10" edge="1">
          <mxGeometry relative="1" as="geometry" />
        </mxCell>
        <mxCell id="WAH0ZMijrrPHtrIPCSXs-13" style="edgeStyle=orthogonalEdgeStyle;rounded=0;orthogonalLoop=1;jettySize=auto;html=1;entryX=0.483;entryY=-0.014;entryDx=0;entryDy=0;entryPerimeter=0;" edge="1" parent="1" source="yGaHs416NKimu-mibkIS-9" target="yGaHs416NKimu-mibkIS-12">
          <mxGeometry relative="1" as="geometry">
            <mxPoint x="830" y="440" as="targetPoint" />
          </mxGeometry>
        </mxCell>
        <mxCell id="yGaHs416NKimu-mibkIS-9" value="while (abs(x - a) &amp;gt; eps)" style="rhombus;whiteSpace=wrap;html=1;" parent="1" vertex="1">
          <mxGeometry x="489.5" y="330" width="180" height="58" as="geometry" />
        </mxCell>
        <mxCell id="yGaHs416NKimu-mibkIS-17" style="edgeStyle=orthogonalEdgeStyle;rounded=0;orthogonalLoop=1;jettySize=auto;html=1;exitX=0.5;exitY=1;exitDx=0;exitDy=0;entryX=0.5;entryY=0;entryDx=0;entryDy=0;" parent="1" source="yGaHs416NKimu-mibkIS-10" target="yGaHs416NKimu-mibkIS-11" edge="1">
          <mxGeometry relative="1" as="geometry" />
        </mxCell>
        <mxCell id="yGaHs416NKimu-mibkIS-10" value="xPrev = x;" style="whiteSpace=wrap;html=1;" parent="1" vertex="1">
          <mxGeometry x="550" y="410" width="60" height="20" as="geometry" />
        </mxCell>
        <mxCell id="WAH0ZMijrrPHtrIPCSXs-14" value="" style="edgeStyle=orthogonalEdgeStyle;rounded=0;orthogonalLoop=1;jettySize=auto;html=1;" edge="1" parent="1" source="yGaHs416NKimu-mibkIS-11" target="WAH0ZMijrrPHtrIPCSXs-12">
          <mxGeometry relative="1" as="geometry" />
        </mxCell>
        <mxCell id="yGaHs416NKimu-mibkIS-11" value="x = fi(a);" style="whiteSpace=wrap;html=1;" parent="1" vertex="1">
          <mxGeometry x="387" y="450" width="386" height="20" as="geometry" />
        </mxCell>
        <mxCell id="yGaHs416NKimu-mibkIS-12" value="cout &amp;lt;&amp;lt;&quot;Корень по методу итераций: &quot;&amp;lt;&amp;lt; x &amp;lt;&amp;lt; endl;" style="shape=parallelogram;perimeter=parallelogramPerimeter;whiteSpace=wrap;html=1;fixedSize=1;" parent="1" vertex="1">
          <mxGeometry x="680" y="520" width="320" height="20" as="geometry" />
        </mxCell>
        <mxCell id="yGaHs416NKimu-mibkIS-20" value="return 0;" style="ellipse;whiteSpace=wrap;html=1;" parent="1" vertex="1">
          <mxGeometry x="785" y="600" width="110" height="30" as="geometry" />
        </mxCell>
        <mxCell id="yGaHs416NKimu-mibkIS-22" value="}" style="text;html=1;align=center;verticalAlign=middle;resizable=0;points=[];autosize=1;strokeColor=none;fillColor=none;" parent="1" vertex="1">
          <mxGeometry x="800" y="540" width="30" height="30" as="geometry" />
        </mxCell>
        <mxCell id="yGaHs416NKimu-mibkIS-23" value="{" style="text;html=1;align=center;verticalAlign=middle;resizable=0;points=[];autosize=1;strokeColor=none;fillColor=none;" parent="1" vertex="1">
          <mxGeometry x="525" y="388" width="30" height="30" as="geometry" />
        </mxCell>
        <mxCell id="yGaHs416NKimu-mibkIS-24" value="}" style="text;html=1;align=center;verticalAlign=middle;resizable=0;points=[];autosize=1;strokeColor=none;fillColor=none;" parent="1" vertex="1">
          <mxGeometry x="840" y="640" width="30" height="30" as="geometry" />
        </mxCell>
        <mxCell id="wTW0I9WCVZT_YMMqWmr7-3" value="" style="endArrow=classic;html=1;rounded=0;entryX=0.458;entryY=-0.062;entryDx=0;entryDy=0;entryPerimeter=0;exitX=0.484;exitY=1.021;exitDx=0;exitDy=0;exitPerimeter=0;" parent="1" source="yGaHs416NKimu-mibkIS-12" target="yGaHs416NKimu-mibkIS-20" edge="1">
          <mxGeometry width="50" height="50" relative="1" as="geometry">
            <mxPoint x="670" y="440" as="sourcePoint" />
            <mxPoint x="720" y="390" as="targetPoint" />
          </mxGeometry>
        </mxCell>
        <mxCell id="WAH0ZMijrrPHtrIPCSXs-4" value="" style="edgeStyle=orthogonalEdgeStyle;rounded=0;orthogonalLoop=1;jettySize=auto;html=1;" edge="1" parent="1" source="WAH0ZMijrrPHtrIPCSXs-1" target="WAH0ZMijrrPHtrIPCSXs-2">
          <mxGeometry relative="1" as="geometry" />
        </mxCell>
        <mxCell id="WAH0ZMijrrPHtrIPCSXs-1" value="double fi(double a)" style="shape=process;whiteSpace=wrap;html=1;backgroundOutline=1;" vertex="1" parent="1">
          <mxGeometry x="504.5" y="100" width="150" height="40" as="geometry" />
        </mxCell>
        <mxCell id="WAH0ZMijrrPHtrIPCSXs-8" style="edgeStyle=orthogonalEdgeStyle;rounded=0;orthogonalLoop=1;jettySize=auto;html=1;entryX=0.5;entryY=0;entryDx=0;entryDy=0;" edge="1" parent="1" source="WAH0ZMijrrPHtrIPCSXs-2" target="yGaHs416NKimu-mibkIS-5">
          <mxGeometry relative="1" as="geometry" />
        </mxCell>
        <mxCell id="WAH0ZMijrrPHtrIPCSXs-2" value="return lambda * (0.1*(pow(a,2))-a*log(a)) + a;" style="rounded=0;whiteSpace=wrap;html=1;" vertex="1" parent="1">
          <mxGeometry x="419.75" y="160" width="320.5" height="30" as="geometry" />
        </mxCell>
        <mxCell id="WAH0ZMijrrPHtrIPCSXs-9" value="}" style="text;html=1;align=center;verticalAlign=middle;resizable=0;points=[];autosize=1;strokeColor=none;fillColor=none;" vertex="1" parent="1">
          <mxGeometry x="580" y="180" width="30" height="30" as="geometry" />
        </mxCell>
        <mxCell id="WAH0ZMijrrPHtrIPCSXs-10" value="{&lt;div&gt;&lt;br&gt;&lt;/div&gt;" style="text;html=1;align=center;verticalAlign=middle;resizable=0;points=[];autosize=1;strokeColor=none;fillColor=none;" vertex="1" parent="1">
          <mxGeometry x="550" y="140" width="30" height="40" as="geometry" />
        </mxCell>
        <mxCell id="WAH0ZMijrrPHtrIPCSXs-11" value="{&lt;div&gt;&lt;br&gt;&lt;/div&gt;" style="text;html=1;align=center;verticalAlign=middle;resizable=0;points=[];autosize=1;strokeColor=none;fillColor=none;" vertex="1" parent="1">
          <mxGeometry x="540" y="230" width="30" height="40" as="geometry" />
        </mxCell>
        <mxCell id="WAH0ZMijrrPHtrIPCSXs-18" value="" style="edgeStyle=orthogonalEdgeStyle;rounded=0;orthogonalLoop=1;jettySize=auto;html=1;" edge="1" parent="1" source="WAH0ZMijrrPHtrIPCSXs-12" target="WAH0ZMijrrPHtrIPCSXs-17">
          <mxGeometry relative="1" as="geometry" />
        </mxCell>
        <mxCell id="WAH0ZMijrrPHtrIPCSXs-12" value="iter++;" style="rounded=0;whiteSpace=wrap;html=1;" vertex="1" parent="1">
          <mxGeometry x="548" y="490" width="63" height="30" as="geometry" />
        </mxCell>
        <mxCell id="WAH0ZMijrrPHtrIPCSXs-15" value="0" style="text;html=1;align=center;verticalAlign=middle;resizable=0;points=[];autosize=1;strokeColor=none;fillColor=none;" vertex="1" parent="1">
          <mxGeometry x="680" y="320" width="30" height="30" as="geometry" />
        </mxCell>
        <mxCell id="WAH0ZMijrrPHtrIPCSXs-16" value="1" style="text;html=1;align=center;verticalAlign=middle;resizable=0;points=[];autosize=1;strokeColor=none;fillColor=none;" vertex="1" parent="1">
          <mxGeometry x="545" y="388" width="30" height="30" as="geometry" />
        </mxCell>
        <mxCell id="WAH0ZMijrrPHtrIPCSXs-17" value="cout&amp;lt;&amp;lt;&quot;Итерация&quot;&amp;lt;&amp;lt;iter&amp;lt;&amp;lt;&quot;:x= &quot;&amp;lt;&amp;lt; a&amp;lt;&amp;lt; endl;" style="shape=parallelogram;perimeter=parallelogramPerimeter;whiteSpace=wrap;html=1;fixedSize=1;" vertex="1" parent="1">
          <mxGeometry x="440" y="560" width="280" height="60" as="geometry" />
        </mxCell>
        <mxCell id="WAH0ZMijrrPHtrIPCSXs-20" value="" style="endArrow=none;html=1;rounded=0;exitX=0.5;exitY=1;exitDx=0;exitDy=0;" edge="1" parent="1" source="WAH0ZMijrrPHtrIPCSXs-17">
          <mxGeometry width="50" height="50" relative="1" as="geometry">
            <mxPoint x="600" y="530" as="sourcePoint" />
            <mxPoint x="580" y="660" as="targetPoint" />
          </mxGeometry>
        </mxCell>
        <mxCell id="WAH0ZMijrrPHtrIPCSXs-23" value="" style="endArrow=none;html=1;rounded=0;" edge="1" parent="1">
          <mxGeometry width="50" height="50" relative="1" as="geometry">
            <mxPoint x="580" y="660" as="sourcePoint" />
            <mxPoint x="340" y="660" as="targetPoint" />
          </mxGeometry>
        </mxCell>
        <mxCell id="WAH0ZMijrrPHtrIPCSXs-24" value="" style="endArrow=none;html=1;rounded=0;" edge="1" parent="1">
          <mxGeometry width="50" height="50" relative="1" as="geometry">
            <mxPoint x="340" y="660" as="sourcePoint" />
            <mxPoint x="340" y="360" as="targetPoint" />
          </mxGeometry>
        </mxCell>
        <mxCell id="WAH0ZMijrrPHtrIPCSXs-25" value="" style="endArrow=classic;html=1;rounded=0;entryX=0;entryY=0.5;entryDx=0;entryDy=0;" edge="1" parent="1" target="yGaHs416NKimu-mibkIS-9">
          <mxGeometry width="50" height="50" relative="1" as="geometry">
            <mxPoint x="340" y="360" as="sourcePoint" />
            <mxPoint x="650" y="480" as="targetPoint" />
          </mxGeometry>
        </mxCell>
      </root>
    </mxGraphModel>
  </diagram>
</mxfile>
